<mxfile host="app.diagrams.net" modified="2021-01-04T20:52:58.116Z" agent="5.0 (Macintosh)" etag="FOWmDe3JZ9Qv_O_p6gHC" version="14.1.7" type="github">
  <diagram id="C5RBs43oDa-KdzZeNtuy" name="Page-1">
    <mxGraphModel dx="1635" dy="977" grid="1" gridSize="10" guides="1" tooltips="1" connect="1" arrows="1" fold="1" page="1" pageScale="1" pageWidth="1169" pageHeight="827" math="0" shadow="0">
      <root>
        <mxCell id="WIyWlLk6GJQsqaUBKTNV-0" />
        <mxCell id="WIyWlLk6GJQsqaUBKTNV-1" parent="WIyWlLk6GJQsqaUBKTNV-0" />
        <mxCell id="kvABEevwN1zH8z0SqJVF-25" style="edgeStyle=orthogonalEdgeStyle;rounded=0;jumpStyle=arc;orthogonalLoop=1;jettySize=auto;html=1;entryX=0;entryY=0.5;entryDx=0;entryDy=0;strokeColor=#3333FF;" edge="1" parent="WIyWlLk6GJQsqaUBKTNV-1" source="kvABEevwN1zH8z0SqJVF-0" target="kvABEevwN1zH8z0SqJVF-10">
          <mxGeometry relative="1" as="geometry">
            <Array as="points">
              <mxPoint x="360" y="245" />
              <mxPoint x="360" y="245" />
            </Array>
          </mxGeometry>
        </mxCell>
        <mxCell id="kvABEevwN1zH8z0SqJVF-26" style="edgeStyle=orthogonalEdgeStyle;rounded=0;jumpStyle=arc;orthogonalLoop=1;jettySize=auto;html=1;entryX=0;entryY=0.5;entryDx=0;entryDy=0;strokeColor=#3333FF;" edge="1" parent="WIyWlLk6GJQsqaUBKTNV-1" source="kvABEevwN1zH8z0SqJVF-0" target="kvABEevwN1zH8z0SqJVF-19">
          <mxGeometry relative="1" as="geometry">
            <Array as="points">
              <mxPoint x="260" y="250" />
              <mxPoint x="260" y="329" />
            </Array>
          </mxGeometry>
        </mxCell>
        <mxCell id="kvABEevwN1zH8z0SqJVF-27" style="edgeStyle=orthogonalEdgeStyle;rounded=0;jumpStyle=arc;orthogonalLoop=1;jettySize=auto;html=1;entryX=0.5;entryY=1;entryDx=0;entryDy=0;strokeColor=#3333FF;" edge="1" parent="WIyWlLk6GJQsqaUBKTNV-1" source="kvABEevwN1zH8z0SqJVF-0" target="kvABEevwN1zH8z0SqJVF-11">
          <mxGeometry relative="1" as="geometry">
            <Array as="points">
              <mxPoint x="195" y="200" />
              <mxPoint x="560" y="200" />
            </Array>
          </mxGeometry>
        </mxCell>
        <mxCell id="kvABEevwN1zH8z0SqJVF-33" style="edgeStyle=orthogonalEdgeStyle;rounded=0;jumpStyle=arc;orthogonalLoop=1;jettySize=auto;html=1;entryX=0;entryY=0.5;entryDx=0;entryDy=0;strokeColor=#3333FF;" edge="1" parent="WIyWlLk6GJQsqaUBKTNV-1" source="kvABEevwN1zH8z0SqJVF-0" target="kvABEevwN1zH8z0SqJVF-32">
          <mxGeometry relative="1" as="geometry" />
        </mxCell>
        <mxCell id="kvABEevwN1zH8z0SqJVF-0" value="Admin" style="shape=umlActor;verticalLabelPosition=bottom;verticalAlign=top;html=1;outlineConnect=0;strokeColor=#3333FF;" vertex="1" parent="WIyWlLk6GJQsqaUBKTNV-1">
          <mxGeometry x="180" y="210" width="30" height="60" as="geometry" />
        </mxCell>
        <mxCell id="kvABEevwN1zH8z0SqJVF-22" style="edgeStyle=orthogonalEdgeStyle;rounded=0;orthogonalLoop=1;jettySize=auto;html=1;entryX=0.5;entryY=1;entryDx=0;entryDy=0;jumpStyle=arc;strokeColor=#FF00FF;" edge="1" parent="WIyWlLk6GJQsqaUBKTNV-1" source="kvABEevwN1zH8z0SqJVF-5" target="kvABEevwN1zH8z0SqJVF-10">
          <mxGeometry relative="1" as="geometry">
            <Array as="points">
              <mxPoint x="360" y="350" />
              <mxPoint x="360" y="290" />
              <mxPoint x="560" y="290" />
            </Array>
          </mxGeometry>
        </mxCell>
        <mxCell id="kvABEevwN1zH8z0SqJVF-28" style="edgeStyle=orthogonalEdgeStyle;rounded=0;jumpStyle=arc;orthogonalLoop=1;jettySize=auto;html=1;entryX=0;entryY=1;entryDx=0;entryDy=0;strokeColor=#FF00FF;" edge="1" parent="WIyWlLk6GJQsqaUBKTNV-1" source="kvABEevwN1zH8z0SqJVF-5" target="kvABEevwN1zH8z0SqJVF-19">
          <mxGeometry relative="1" as="geometry">
            <Array as="points">
              <mxPoint x="355" y="350" />
              <mxPoint x="355" y="370" />
              <mxPoint x="518" y="370" />
            </Array>
          </mxGeometry>
        </mxCell>
        <mxCell id="kvABEevwN1zH8z0SqJVF-30" style="edgeStyle=orthogonalEdgeStyle;rounded=0;jumpStyle=arc;orthogonalLoop=1;jettySize=auto;html=1;entryX=0;entryY=1;entryDx=0;entryDy=0;strokeColor=#FF00FF;" edge="1" parent="WIyWlLk6GJQsqaUBKTNV-1" source="kvABEevwN1zH8z0SqJVF-5" target="kvABEevwN1zH8z0SqJVF-10">
          <mxGeometry relative="1" as="geometry">
            <Array as="points">
              <mxPoint x="290" y="350" />
              <mxPoint x="290" y="280" />
              <mxPoint x="518" y="280" />
            </Array>
          </mxGeometry>
        </mxCell>
        <mxCell id="kvABEevwN1zH8z0SqJVF-39" style="edgeStyle=orthogonalEdgeStyle;rounded=0;jumpStyle=arc;orthogonalLoop=1;jettySize=auto;html=1;entryX=0;entryY=0.5;entryDx=0;entryDy=0;strokeColor=#FF00FF;" edge="1" parent="WIyWlLk6GJQsqaUBKTNV-1" source="kvABEevwN1zH8z0SqJVF-5" target="kvABEevwN1zH8z0SqJVF-38">
          <mxGeometry relative="1" as="geometry">
            <Array as="points">
              <mxPoint x="290" y="350" />
              <mxPoint x="290" y="555" />
            </Array>
          </mxGeometry>
        </mxCell>
        <mxCell id="kvABEevwN1zH8z0SqJVF-42" style="edgeStyle=orthogonalEdgeStyle;rounded=0;jumpStyle=arc;orthogonalLoop=1;jettySize=auto;html=1;entryX=0;entryY=1;entryDx=0;entryDy=0;strokeColor=#FF33FF;" edge="1" parent="WIyWlLk6GJQsqaUBKTNV-1" source="kvABEevwN1zH8z0SqJVF-5" target="kvABEevwN1zH8z0SqJVF-40">
          <mxGeometry relative="1" as="geometry">
            <Array as="points">
              <mxPoint x="290" y="350" />
              <mxPoint x="290" y="643" />
            </Array>
          </mxGeometry>
        </mxCell>
        <mxCell id="kvABEevwN1zH8z0SqJVF-5" value="Delivery driver" style="shape=umlActor;verticalLabelPosition=bottom;verticalAlign=top;html=1;outlineConnect=0;strokeColor=#FF00FF;" vertex="1" parent="WIyWlLk6GJQsqaUBKTNV-1">
          <mxGeometry x="180" y="320" width="30" height="60" as="geometry" />
        </mxCell>
        <mxCell id="kvABEevwN1zH8z0SqJVF-41" style="edgeStyle=orthogonalEdgeStyle;rounded=0;jumpStyle=arc;orthogonalLoop=1;jettySize=auto;html=1;entryX=0;entryY=0.5;entryDx=0;entryDy=0;strokeColor=#33FF33;" edge="1" parent="WIyWlLk6GJQsqaUBKTNV-1" source="kvABEevwN1zH8z0SqJVF-7" target="kvABEevwN1zH8z0SqJVF-40">
          <mxGeometry relative="1" as="geometry">
            <Array as="points">
              <mxPoint x="195" y="625" />
            </Array>
          </mxGeometry>
        </mxCell>
        <mxCell id="kvABEevwN1zH8z0SqJVF-7" value="Farm hand" style="shape=umlActor;verticalLabelPosition=bottom;verticalAlign=top;html=1;outlineConnect=0;fillColor=none;strokeColor=#33FF33;" vertex="1" parent="WIyWlLk6GJQsqaUBKTNV-1">
          <mxGeometry x="180" y="436" width="30" height="60" as="geometry" />
        </mxCell>
        <mxCell id="kvABEevwN1zH8z0SqJVF-20" style="edgeStyle=orthogonalEdgeStyle;rounded=0;orthogonalLoop=1;jettySize=auto;html=1;entryX=0;entryY=0.5;entryDx=0;entryDy=0;jumpStyle=arc;strokeColor=#FF3333;" edge="1" parent="WIyWlLk6GJQsqaUBKTNV-1" source="kvABEevwN1zH8z0SqJVF-8" target="kvABEevwN1zH8z0SqJVF-11">
          <mxGeometry relative="1" as="geometry">
            <Array as="points">
              <mxPoint x="400" y="130" />
              <mxPoint x="400" y="130" />
            </Array>
          </mxGeometry>
        </mxCell>
        <mxCell id="kvABEevwN1zH8z0SqJVF-24" style="edgeStyle=orthogonalEdgeStyle;rounded=0;orthogonalLoop=1;jettySize=auto;html=1;entryX=0;entryY=0.5;entryDx=0;entryDy=0;jumpStyle=arc;strokeColor=#FF3333;" edge="1" parent="WIyWlLk6GJQsqaUBKTNV-1" source="kvABEevwN1zH8z0SqJVF-8" target="kvABEevwN1zH8z0SqJVF-18">
          <mxGeometry relative="1" as="geometry">
            <Array as="points">
              <mxPoint x="310" y="130" />
              <mxPoint x="310" y="414" />
            </Array>
          </mxGeometry>
        </mxCell>
        <mxCell id="kvABEevwN1zH8z0SqJVF-29" style="edgeStyle=orthogonalEdgeStyle;rounded=0;jumpStyle=arc;orthogonalLoop=1;jettySize=auto;html=1;entryX=0;entryY=0;entryDx=0;entryDy=0;strokeColor=#FF3333;" edge="1" parent="WIyWlLk6GJQsqaUBKTNV-1" source="kvABEevwN1zH8z0SqJVF-8" target="kvABEevwN1zH8z0SqJVF-10">
          <mxGeometry relative="1" as="geometry">
            <Array as="points">
              <mxPoint x="195" y="180" />
              <mxPoint x="518" y="180" />
            </Array>
          </mxGeometry>
        </mxCell>
        <mxCell id="kvABEevwN1zH8z0SqJVF-37" style="edgeStyle=orthogonalEdgeStyle;rounded=0;jumpStyle=arc;orthogonalLoop=1;jettySize=auto;html=1;entryX=0;entryY=1;entryDx=0;entryDy=0;strokeColor=#FF3333;" edge="1" parent="WIyWlLk6GJQsqaUBKTNV-1" source="kvABEevwN1zH8z0SqJVF-8" target="kvABEevwN1zH8z0SqJVF-32">
          <mxGeometry relative="1" as="geometry">
            <Array as="points">
              <mxPoint x="310" y="130" />
              <mxPoint x="310" y="493" />
            </Array>
          </mxGeometry>
        </mxCell>
        <mxCell id="kvABEevwN1zH8z0SqJVF-8" value="Customer" style="shape=umlActor;verticalLabelPosition=bottom;verticalAlign=top;html=1;outlineConnect=0;strokeColor=#FF3333;" vertex="1" parent="WIyWlLk6GJQsqaUBKTNV-1">
          <mxGeometry x="180" y="100" width="30" height="60" as="geometry" />
        </mxCell>
        <mxCell id="kvABEevwN1zH8z0SqJVF-9" value="" style="shape=mxgraph.signs.transportation.tractor_1;html=1;pointerEvents=1;fillColor=#000000;strokeColor=none;verticalLabelPosition=bottom;verticalAlign=top;align=center;" vertex="1" parent="WIyWlLk6GJQsqaUBKTNV-1">
          <mxGeometry x="950" y="338" width="99" height="76" as="geometry" />
        </mxCell>
        <mxCell id="kvABEevwN1zH8z0SqJVF-10" value="Check notes &lt;br&gt;to driver" style="ellipse;whiteSpace=wrap;html=1;" vertex="1" parent="WIyWlLk6GJQsqaUBKTNV-1">
          <mxGeometry x="500" y="220" width="120" height="50" as="geometry" />
        </mxCell>
        <mxCell id="kvABEevwN1zH8z0SqJVF-11" value="Add/edit notes &lt;br&gt;to driver" style="ellipse;whiteSpace=wrap;html=1;" vertex="1" parent="WIyWlLk6GJQsqaUBKTNV-1">
          <mxGeometry x="500" y="105" width="120" height="50" as="geometry" />
        </mxCell>
        <mxCell id="kvABEevwN1zH8z0SqJVF-18" value="Check notes &lt;br&gt;to customer" style="ellipse;whiteSpace=wrap;html=1;" vertex="1" parent="WIyWlLk6GJQsqaUBKTNV-1">
          <mxGeometry x="500" y="389" width="120" height="50" as="geometry" />
        </mxCell>
        <mxCell id="kvABEevwN1zH8z0SqJVF-19" value="Add/edit notes &lt;br&gt;to customer" style="ellipse;whiteSpace=wrap;html=1;" vertex="1" parent="WIyWlLk6GJQsqaUBKTNV-1">
          <mxGeometry x="500" y="304" width="120" height="50" as="geometry" />
        </mxCell>
        <mxCell id="kvABEevwN1zH8z0SqJVF-32" value="Add/edit customer profile" style="ellipse;whiteSpace=wrap;html=1;" vertex="1" parent="WIyWlLk6GJQsqaUBKTNV-1">
          <mxGeometry x="500" y="450" width="120" height="50" as="geometry" />
        </mxCell>
        <mxCell id="kvABEevwN1zH8z0SqJVF-38" value="View customer address" style="ellipse;whiteSpace=wrap;html=1;" vertex="1" parent="WIyWlLk6GJQsqaUBKTNV-1">
          <mxGeometry x="500" y="530" width="120" height="50" as="geometry" />
        </mxCell>
        <mxCell id="kvABEevwN1zH8z0SqJVF-40" value="View total vegboxes required by day" style="ellipse;whiteSpace=wrap;html=1;" vertex="1" parent="WIyWlLk6GJQsqaUBKTNV-1">
          <mxGeometry x="500" y="600" width="120" height="50" as="geometry" />
        </mxCell>
        <mxCell id="kvABEevwN1zH8z0SqJVF-44" value="" style="rounded=0;whiteSpace=wrap;html=1;strokeColor=#33FF33;fillColor=none;" vertex="1" parent="WIyWlLk6GJQsqaUBKTNV-1">
          <mxGeometry x="160" y="250" width="120" height="60" as="geometry" />
        </mxCell>
        <mxCell id="kvABEevwN1zH8z0SqJVF-45" value="" style="rounded=0;whiteSpace=wrap;html=1;fillColor=none;" vertex="1" parent="WIyWlLk6GJQsqaUBKTNV-1">
          <mxGeometry x="430" y="30" width="260" height="730" as="geometry" />
        </mxCell>
        <mxCell id="kvABEevwN1zH8z0SqJVF-46" value="Farm" style="text;html=1;strokeColor=none;fillColor=none;align=center;verticalAlign=middle;whiteSpace=wrap;rounded=0;" vertex="1" parent="WIyWlLk6GJQsqaUBKTNV-1">
          <mxGeometry x="980" y="430" width="40" height="20" as="geometry" />
        </mxCell>
      </root>
    </mxGraphModel>
  </diagram>
</mxfile>
